<svg xmlns="http://www.w3.org/2000/svg" viewBox="0 0 720 306" role="img" aria-label="Control Plane sits above many Kubernetes clusters. Clusters reach it three ways: built-in Control Plane regions on AWS, GCP, Azure, and OCI; Managed Kubernetes clusters Control Plane provisions on your infrastructure; and CPLN BYOK clusters you already run. Each becomes a location a GVC can span.">
<style>
  .box{fill:none;stroke:#8b949e;stroke-width:1.5}
  .accent{stroke:#1563ff;stroke-width:1.75}
  .ttl{fill:#1f2328;font:600 14px ui-sans-serif,-apple-system,"Segoe UI",Helvetica,Arial,sans-serif}
  .sub{fill:#57606a;font:400 11.5px ui-sans-serif,-apple-system,"Segoe UI",Helvetica,Arial,sans-serif}
  .chp{fill:#1563ff;font:600 10.5px SFMono-Regular,Menlo,Consolas,monospace}
  .chipbox{fill:none;stroke:#1563ff;stroke-width:1.25}
  .line{stroke:#8b949e;stroke-width:1.5;fill:none;stroke-opacity:.75}
  .on-dark{display:none}
  @media (prefers-color-scheme:dark){
    .box,.line{stroke:#6e7681}
    .accent,.chipbox{stroke:#64a5ef}
    .ttl{fill:#e6edf3}
    .sub{fill:#9198a1}
    .chp{fill:#64a5ef}
    .on-light{display:none}
    .on-dark{display:inline}
  }
</style>
<defs><symbol id="cpln" viewBox="0 0 444 502"><path d="M-0.000279431 358V143.56C-0.00742877 137.181 1.6688 130.913 4.85911 125.389C8.04943 119.866 12.6409 115.281 18.1697 112.1L203.85 4.85989C209.358 1.67622 215.608 0 221.97 0C228.332 0 234.582 1.67622 240.09 4.85989L426.21 112.1C431.651 115.343 436.15 119.952 439.26 125.471C442.371 130.99 443.984 137.225 443.94 143.56V358C443.984 364.334 442.371 370.57 439.26 376.089C436.15 381.607 431.651 386.217 426.21 389.46L240.09 496.74C234.58 499.919 228.331 501.592 221.97 501.592C215.609 501.592 209.36 499.919 203.85 496.74L18.1697 389.94C12.5703 386.717 7.93354 382.057 4.73904 376.442C1.54455 370.827 -0.0916403 364.46 -0.000279431 358Z" fill="#1563FF"/><path d="M394.39 134.783L242.49 47.003C240.42 45.8031 238.07 45.1714 235.677 45.1719C233.284 45.1724 230.934 45.805 228.865 47.0057C226.795 48.2064 225.08 49.9326 223.892 52.0095C222.704 54.0865 222.086 56.4404 222.1 58.833V143.003L301.34 188.643C305.702 191.154 309.326 194.77 311.845 199.127C314.365 203.485 315.691 208.43 315.69 213.463V304.653L388.63 346.753C390.691 347.933 393.025 348.552 395.4 348.547C397.775 348.541 400.107 347.912 402.163 346.723C404.218 345.533 405.925 343.824 407.113 341.767C408.3 339.711 408.927 337.378 408.93 335.003V159.513C408.903 154.475 407.544 149.533 404.99 145.19C402.437 140.847 398.779 137.256 394.39 134.783Z" fill="#DCE8FF"/><path d="M128.779 288.108V196.908L55.8393 154.808C53.7722 153.609 51.4256 152.978 49.0364 152.977C46.6471 152.975 44.2999 153.604 42.2315 154.8C40.1632 155.996 38.447 157.717 37.2561 159.788C36.0653 161.86 35.4421 164.208 35.4493 166.598V341.998C35.4503 347.032 36.7783 351.977 39.2994 356.334C41.8204 360.692 45.4455 364.307 49.8093 366.818L201.719 454.558C203.759 455.745 206.073 456.38 208.433 456.399C210.793 456.418 213.117 455.821 215.175 454.666C217.234 453.512 218.955 451.84 220.17 449.816C221.384 447.793 222.049 445.487 222.099 443.128V358.928L143.099 313.288C138.682 310.751 135.024 307.078 132.506 302.65C129.988 298.222 128.701 293.201 128.779 288.108Z" fill="#508AFF"/><path d="M222.1 234.222V143.002L149.16 100.902C147.094 99.6967 144.747 99.0593 142.355 99.0547C139.964 99.0501 137.614 99.6785 135.544 100.876C133.474 102.073 131.758 103.797 130.57 105.873C129.382 107.948 128.764 110.301 128.78 112.692V196.882L207.78 242.522C212.148 245.026 215.776 248.641 218.296 253C220.816 257.359 222.139 262.307 222.13 267.342V358.542L295 400.672C297.066 401.877 299.414 402.514 301.805 402.518C304.197 402.522 306.547 401.894 308.617 400.697C310.688 399.5 312.405 397.776 313.594 395.701C314.784 393.626 315.403 391.274 315.39 388.882V304.682L236.37 259.002C232.017 256.497 228.404 252.886 225.898 248.534C223.392 244.182 222.081 239.244 222.1 234.222Z" fill="#96B9FF"/><path d="M301.34 188.671L222.34 143.031V234.221C222.321 239.247 223.634 244.188 226.146 248.541C228.658 252.894 232.279 256.503 236.64 259.001L315.69 304.641V213.491C315.691 208.458 314.365 203.513 311.846 199.156C309.326 194.798 305.703 191.182 301.34 188.671Z" fill="#EFF5FF"/><path d="M207.75 242.546L128.75 196.906V288.106C128.732 293.132 130.042 298.074 132.548 302.431C135.054 306.788 138.666 310.405 143.02 312.916L222.02 358.566V267.366C222.037 262.339 220.727 257.396 218.221 253.038C215.715 248.68 212.103 245.061 207.75 242.546Z" fill="#B0CAFF"/></symbol><symbol id="k8s" viewBox="-0.17 0.08 230.10 223.35"><path d="M134.358 126.466a3.59 3.59 0 0 0-.855-.065 3.685 3.685 0 0 0-1.425.37 3.725 3.725 0 0 0-1.803 4.825l-.026.037 8.528 20.603a43.53 43.53 0 0 0 17.595-22.102l-21.976-3.714zm-34.194 2.92a3.72 3.72 0 0 0-3.568-2.894 3.656 3.656 0 0 0-.733.065l-.037-.045-21.785 3.698a43.695 43.695 0 0 0 17.54 21.946l8.442-20.4-.066-.08a3.683 3.683 0 0 0 .207-2.29zm18.245 8a3.718 3.718 0 0 0-6.557.008h-.018l-10.713 19.372a43.637 43.637 0 0 0 23.815 1.225q2.197-.5 4.292-1.2l-10.738-19.406zm33.914-45l-16.483 14.753.009.047a3.725 3.725 0 0 0 1.46 6.395l.02.089 21.35 6.15a44.278 44.278 0 0 0-6.356-27.432zM121.7 94.039a3.725 3.725 0 0 0 5.913 2.84l.065.027 18.036-12.788a43.85 43.85 0 0 0-25.287-12.19l1.253 22.105zm-19.1 2.921a3.72 3.72 0 0 0 5.904-2.85l.092-.043 1.253-22.14a44.682 44.682 0 0 0-4.501.776 43.467 43.467 0 0 0-20.937 11.409l18.154 12.869zm-9.678 16.729a3.72 3.72 0 0 0 1.462-6.396l.018-.088-16.574-14.824a43.454 43.454 0 0 0-6.168 27.51l21.245-6.13zm16.098 6.512l6.114 2.94 6.096-2.934 1.514-6.581-4.219-5.276h-6.79l-4.231 5.268z" fill="#326ce5"/><path d="M216.208 133.167l-17.422-75.675a13.602 13.602 0 0 0-7.293-9.073l-70.521-33.67a13.589 13.589 0 0 0-11.705 0L38.76 48.437a13.598 13.598 0 0 0-7.295 9.072l-17.394 75.673a13.315 13.315 0 0 0-.004 5.81 13.506 13.506 0 0 0 .491 1.718 13.1 13.1 0 0 0 1.343 2.726c.239.365.491.72.765 1.064l48.804 60.678c.213.264.448.505.681.75a13.423 13.423 0 0 0 2.574 2.133 13.924 13.924 0 0 0 3.857 1.677 13.298 13.298 0 0 0 3.43.473h.759l77.504-.018a12.993 12.993 0 0 0 1.41-.083 13.47 13.47 0 0 0 1.989-.378 13.872 13.872 0 0 0 1.381-.442c.353-.135.705-.27 1.045-.433a13.941 13.941 0 0 0 1.479-.822 13.303 13.303 0 0 0 3.237-2.865l1.488-1.85 47.299-58.84a13.185 13.185 0 0 0 2.108-3.785 13.67 13.67 0 0 0 .5-1.724 13.282 13.282 0 0 0-.004-5.81zm-73.147 29.432a14.516 14.516 0 0 0 .703 1.703 3.314 3.314 0 0 0-.327 2.49 39.372 39.372 0 0 0 3.742 6.7 35.06 35.06 0 0 1 2.263 3.364c.17.315.392.803.553 1.136a4.24 4.24 0 1 1-7.63 3.607c-.161-.33-.385-.77-.522-1.082a35.275 35.275 0 0 1-1.225-3.868 39.305 39.305 0 0 0-2.896-7.097 3.335 3.335 0 0 0-2.154-1.307c-.135-.233-.635-1.15-.903-1.623a54.617 54.617 0 0 1-38.948-.1l-.955 1.73a3.429 3.429 0 0 0-1.819.887 29.517 29.517 0 0 0-3.268 7.582 34.9 34.9 0 0 1-1.218 3.868c-.135.31-.361.744-.522 1.073v.009l-.007.008a4.238 4.238 0 1 1-7.619-3.616c.159-.335.372-.82.54-1.135a35.177 35.177 0 0 1 2.262-3.373 41.228 41.228 0 0 0 3.82-6.866 4.188 4.188 0 0 0-.376-2.387l.768-1.84a54.922 54.922 0 0 1-24.338-30.387l-1.839.313a4.68 4.68 0 0 0-2.428-.855 39.524 39.524 0 0 0-7.356 2.165 35.589 35.589 0 0 1-3.787 1.45c-.305.084-.745.168-1.093.244-.028.01-.052.022-.08.029a.605.605 0 0 1-.065.006 4.236 4.236 0 1 1-1.874-8.224l.061-.015.037-.01c.353-.083.805-.2 1.127-.262a35.27 35.27 0 0 1 4.05-.326 39.388 39.388 0 0 0 7.564-1.242 5.835 5.835 0 0 0 1.814-1.83l1.767-.516a54.613 54.613 0 0 1 8.613-38.073l-1.353-1.206a4.688 4.688 0 0 0-.848-2.436 39.366 39.366 0 0 0-6.277-4.41 35.25 35.25 0 0 1-3.499-2.046c-.256-.191-.596-.478-.874-.704l-.063-.044a4.473 4.473 0 0 1-1.038-6.222 4.066 4.066 0 0 1 3.363-1.488 5.03 5.03 0 0 1 2.942 1.11c.287.225.68.526.935.745a35.253 35.253 0 0 1 2.78 2.95 39.383 39.383 0 0 0 5.69 5.142 3.333 3.333 0 0 0 2.507.243q.754.55 1.522 1.082A54.289 54.289 0 0 1 102.86 61.89a55.052 55.052 0 0 1 7.63-1.173l.1-1.784a4.6 4.6 0 0 0 1.37-2.184 39.476 39.476 0 0 0-.47-7.654 35.466 35.466 0 0 1-.576-4.014c-.011-.307.006-.731.01-1.081 0-.04-.01-.08-.01-.118a4.242 4.242 0 1 1 8.441-.004c0 .37.022.86.009 1.2a35.109 35.109 0 0 1-.579 4.013 39.533 39.533 0 0 0-.478 7.656 3.344 3.344 0 0 0 1.379 2.11c.015.305.065 1.323.102 1.884a55.309 55.309 0 0 1 35.032 16.927l1.606-1.147a4.69 4.69 0 0 0 2.56-.278 39.532 39.532 0 0 0 5.69-5.148 35.004 35.004 0 0 1 2.787-2.95c.259-.222.65-.52.936-.746a4.242 4.242 0 1 1 5.258 6.598c-.283.229-.657.548-.929.75a35.095 35.095 0 0 1-3.507 2.046 39.495 39.495 0 0 0-6.277 4.41 3.337 3.337 0 0 0-.792 2.39c-.235.216-1.06.947-1.497 1.343a54.837 54.837 0 0 1 8.792 37.983l1.704.496a4.745 4.745 0 0 0 1.82 1.83 39.464 39.464 0 0 0 7.568 1.246 35.64 35.64 0 0 1 4.046.324c.355.065.868.207 1.23.29a4.236 4.236 0 1 1-1.878 8.223l-.061-.008c-.028-.007-.054-.022-.083-.03-.348-.075-.785-.151-1.09-.231a35.14 35.14 0 0 1-3.785-1.462 39.477 39.477 0 0 0-7.363-2.165 3.337 3.337 0 0 0-2.362.877q-.9-.171-1.804-.316a54.92 54.92 0 0 1-24.328 30.605z" fill="#326ce5"/><path d="M225.407 135.107L206.4 52.547a14.838 14.838 0 0 0-7.958-9.9l-76.935-36.73a14.825 14.825 0 0 0-12.771 0L31.808 42.669a14.838 14.838 0 0 0-7.961 9.895L4.873 135.129a14.668 14.668 0 0 0 1.995 11.185c.261.4.538.788.838 1.162l53.246 66.205a14.98 14.98 0 0 0 11.499 5.487l85.387-.02a14.986 14.986 0 0 0 11.5-5.48l53.227-66.211a14.72 14.72 0 0 0 2.842-12.347zm-9.197 3.866a13.677 13.677 0 0 1-.498 1.723 13.184 13.184 0 0 1-2.11 3.786l-47.299 58.838-1.486 1.852a13.305 13.305 0 0 1-3.24 2.865 13.945 13.945 0 0 1-1.474.822q-.513.237-1.045.43a13.873 13.873 0 0 1-1.383.445 13.473 13.473 0 0 1-1.989.379 12.988 12.988 0 0 1-1.41.082l-77.504.018h-.76a13.298 13.298 0 0 1-3.429-.472 13.925 13.925 0 0 1-3.855-1.679 13.424 13.424 0 0 1-2.576-2.132c-.233-.246-.468-.487-.68-.75l-48.805-60.679q-.408-.514-.765-1.066a13.102 13.102 0 0 1-1.343-2.726 13.505 13.505 0 0 1-.491-1.719 13.315 13.315 0 0 1 .004-5.809l17.394-75.675a13.598 13.598 0 0 1 7.295-9.07l70.508-33.685a13.589 13.589 0 0 1 11.705 0l70.519 33.67a13.602 13.602 0 0 1 7.293 9.073l17.422 75.674a13.282 13.282 0 0 1 .002 5.807z" fill="#fff"/><path d="M185.814 127.106c-.36-.083-.874-.225-1.227-.29a35.642 35.642 0 0 0-4.046-.326 39.464 39.464 0 0 1-7.57-1.242 4.745 4.745 0 0 1-1.82-1.832l-1.704-.496a54.837 54.837 0 0 0-8.79-37.983c.436-.396 1.262-1.127 1.495-1.342a3.338 3.338 0 0 1 .792-2.39 39.495 39.495 0 0 1 6.277-4.41 35.095 35.095 0 0 0 3.507-2.046c.272-.202.644-.522.929-.75a4.242 4.242 0 1 0-5.256-6.6c-.288.227-.68.525-.936.747a35.004 35.004 0 0 0-2.789 2.95 39.533 39.533 0 0 1-5.69 5.148 4.69 4.69 0 0 1-2.56.278l-1.606 1.147a55.309 55.309 0 0 0-35.032-16.927c-.039-.561-.087-1.577-.102-1.884a3.344 3.344 0 0 1-1.377-2.11 39.533 39.533 0 0 1 .478-7.656 35.112 35.112 0 0 0 .575-4.012c.013-.34-.007-.834-.007-1.201a4.242 4.242 0 1 0-8.441.004c0 .04.009.078.01.118-.004.35-.021.774-.01 1.08a35.476 35.476 0 0 0 .576 4.015 39.475 39.475 0 0 1 .47 7.654 4.601 4.601 0 0 1-1.37 2.182l-.1 1.786a55.052 55.052 0 0 0-7.63 1.173 54.289 54.289 0 0 0-27.574 15.754q-.77-.531-1.526-1.082a3.333 3.333 0 0 1-2.506-.243 39.383 39.383 0 0 1-5.69-5.141 35.255 35.255 0 0 0-2.777-2.95c-.257-.22-.65-.52-.938-.75a5.03 5.03 0 0 0-2.942-1.11 4.066 4.066 0 0 0-3.363 1.49 4.473 4.473 0 0 0 1.038 6.222l.065.046c.276.226.616.515.872.702a35.256 35.256 0 0 0 3.499 2.048 39.367 39.367 0 0 1 6.276 4.412 4.69 4.69 0 0 1 .849 2.434l1.351 1.208a54.613 54.613 0 0 0-8.611 38.073l-1.767.514a5.835 5.835 0 0 1-1.814 1.827 39.39 39.39 0 0 1-7.565 1.247 35.266 35.266 0 0 0-4.049.326c-.324.06-.774.174-1.127.262l-.037.008-.06.018a4.236 4.236 0 1 0 1.875 8.224l.063-.01c.028-.006.052-.02.08-.025.348-.08.786-.163 1.092-.246a35.59 35.59 0 0 0 3.786-1.451 39.527 39.527 0 0 1 7.358-2.165 4.68 4.68 0 0 1 2.426.857l1.84-.315a54.922 54.922 0 0 0 24.34 30.387l-.769 1.84a4.188 4.188 0 0 1 .377 2.387 41.228 41.228 0 0 1-3.82 6.864 35.183 35.183 0 0 0-2.263 3.372c-.168.318-.381.805-.542 1.138a4.238 4.238 0 1 0 7.621 3.616l.007-.008v-.01c.16-.33.387-.763.522-1.072a34.903 34.903 0 0 0 1.218-3.868 29.517 29.517 0 0 1 3.268-7.582 3.43 3.43 0 0 1 1.819-.888l.957-1.73a54.617 54.617 0 0 0 38.946.099c.268.478.768 1.392.9 1.623a3.335 3.335 0 0 1 2.155 1.31 39.306 39.306 0 0 1 2.898 7.096 35.275 35.275 0 0 0 1.225 3.868c.137.312.36.75.522 1.082a4.24 4.24 0 1 0 7.63-3.607c-.161-.333-.383-.82-.55-1.136a35.06 35.06 0 0 0-2.263-3.364 39.372 39.372 0 0 1-3.742-6.7 3.314 3.314 0 0 1 .324-2.49 14.519 14.519 0 0 1-.703-1.703 54.92 54.92 0 0 0 24.328-30.605c.546.087 1.497.253 1.806.316a3.337 3.337 0 0 1 2.36-.877 39.476 39.476 0 0 1 7.36 2.165 35.135 35.135 0 0 0 3.788 1.462c.305.08.74.156 1.09.233.029.008.055.02.083.028l.06.009a4.236 4.236 0 1 0 1.878-8.224zm-40.1-42.987l-18.037 12.787-.063-.03a3.723 3.723 0 0 1-5.913-2.838l-.02-.01-1.253-22.103a43.85 43.85 0 0 1 25.285 12.194zm-33.978 24.228h6.788l4.22 5.276-1.513 6.58-6.096 2.934-6.114-2.94-1.516-6.583zm-6.386-35.648a44.672 44.672 0 0 1 4.503-.774l-1.255 22.137-.092.044a3.72 3.72 0 0 1-5.904 2.852l-.035.02-18.154-12.872a43.467 43.467 0 0 1 20.937-11.407zm-27.52 19.68l16.574 14.824-.018.09a3.72 3.72 0 0 1-1.462 6.395l-.017.072-21.245 6.13a43.454 43.454 0 0 1 6.168-27.51zm22.191 39.38l-8.441 20.397a43.696 43.696 0 0 1-17.536-21.948l21.783-3.7.037.049a3.655 3.655 0 0 1 .73-.065 3.72 3.72 0 0 1 3.364 5.185zm24.916 26.23a43.637 43.637 0 0 1-23.815-1.223l10.713-19.372h.018a3.725 3.725 0 0 1 6.557-.006h.08l10.74 19.404q-2.091.698-4.293 1.199zm13.841-5.751l-8.528-20.605.026-.037a3.725 3.725 0 0 1 1.803-4.823 3.685 3.685 0 0 1 1.425-.37 3.59 3.59 0 0 1 .855.063l.037-.046 21.977 3.714a43.53 43.53 0 0 1-17.595 22.105zm19.903-32.42l-21.352-6.15-.02-.09a3.725 3.725 0 0 1-1.46-6.395l-.008-.043 16.482-14.751a44.279 44.279 0 0 1 6.357 27.43z" fill="#fff"/></symbol><symbol id="aws-l" viewBox="0 0 42.1 25.2"><path d="M11.9 9.2c0 .5.1.9.2 1.2.1.3.3.6.4 1 .1.1.1.2.1.3s-.1.3-.3.4l-.9.6c-.1.1-.3.1-.4.1-.1 0-.3-.1-.4-.2-.2-.2-.4-.4-.5-.7-.1-.2-.3-.5-.4-.8A5.16 5.16 0 015.6 13c-1.2 0-2.1-.3-2.8-1s-1-1.6-1-2.7c0-1.2.4-2.2 1.3-2.9s2-1.1 3.4-1.1c.5 0 1 0 1.5.1.5.2 1 .3 1.5.5v-1c0-1.1-.2-1.8-.7-2.2-.4-.5-1.1-.8-2.2-.8-.5 0-1 .1-1.5.2s-1 .3-1.5.5c-.2.1-.4.2-.5.2h-.2c-.2 0-.3-.1-.3-.4v-.7c0-.2 0-.4.1-.5 0-.1.2-.2.4-.3C3.6.6 4.2.4 4.9.3 5.5.1 6.2 0 7 0c1.7 0 2.9.4 3.7 1.1.8.8 1.2 1.9 1.2 3.4v4.7zm-5.7 2.1c.5 0 .9-.1 1.4-.3s1-.5 1.3-.9c.2-.3.4-.6.5-.9.1-.3.2-.7.2-1.2v-.6c-.4-.1-.9-.2-1.3-.2-.5-.1-.9-.1-1.3-.1-1 0-1.7.2-2.1.6-.5.3-.7.9-.7 1.6s.2 1.1.5 1.5c.3.3.8.5 1.5.5zm11.2 1.5c-.3 0-.4 0-.5-.1s-.2-.3-.3-.5L13.3 1.3c-.1-.3-.1-.5-.1-.6 0-.2.1-.4.3-.4h1.4c.3 0 .4 0 .5.1s.2.3.3.5l2.4 9.3L20.3.9c.1-.3.2-.5.3-.5.1-.1.3-.1.6-.1h1.1c.3 0 .4 0 .6.1 0 .2.1.4.1.7l2.2 9.4 2.4-9.4c.1-.3.2-.5.3-.5.1-.1.3-.1.5-.1h1.3c.2 0 .4.1.4.4v.2c0 .1 0 .2-.1.4l-3.4 10.8c-.1.3-.2.5-.3.5-.1.1-.3.1-.5.1h-1.2c-.3 0-.4 0-.6-.1-.1-.1-.2-.3-.3-.6l-2.2-9-2.2 9c-.1.3-.2.5-.3.6-.1.1-.3.1-.6.1l-1-.1zm18 .4a8.33 8.33 0 01-3.8-.9c-.2-.1-.4-.3-.4-.4-.1-.1-.1-.3-.1-.4v-.7c0-.3.1-.4.3-.4h.3c.1 0 .2.1.4.1.5.2 1 .4 1.5.5.6.1 1.1.2 1.7.2.9 0 1.6-.2 2-.5.5-.3.7-.8.7-1.3 0-.4-.1-.7-.4-1-.2-.2-.6-.4-1.3-.6l-2-.6c-1-.3-1.8-.8-2.2-1.4-.5-.6-.7-1.3-.7-2 0-.6.1-1.1.4-1.6.3-.4.6-.8 1-1.1.4-.3.9-.6 1.5-.7.4-.3 1-.4 1.6-.4.3 0 .6 0 .9.1.3 0 .6.1.9.2.3.1.5.1.8.2s.4.2.6.3c.2.1.3.2.4.4.1.1.1.3.1.5v.7c0 .3-.1.4-.3.4-.1 0-.3-.1-.5-.2-.8-.4-1.7-.5-2.7-.5-.8 0-1.4.1-1.9.4-.4.3-.7.7-.7 1.2 0 .4.1.7.4 1 .3.3.8.5 1.5.8l2 .6c1 .3 1.7.8 2.2 1.3.4.6.6 1.2.6 2 0 .6-.1 1.1-.4 1.6a4 4 0 01-1 1.2c-.4.4-1 .6-1.6.8-.4.1-1 .2-1.8.2z" fill="currentColor"/><path d="M38.1 20c-4.6 3.4-11.3 5.2-17.1 5.2A31 31 0 01.2 17.3c-.4-.4 0-.9.5-.6 5.9 3.4 13.3 5.5 20.9 5.5 5.1 0 10.7-1.1 15.9-3.3.7-.3 1.3.5.6 1.1z" fill-rule="evenodd" clip-rule="evenodd" fill="#f90"/><path d="M40 17.8c-.6-.8-3.9-.4-5.4-.2-.4.1-.5-.3-.1-.6 2.6-1.8 7-1.3 7.5-.7.5.6-.1 5-2.6 7-.4.3-.7.2-.6-.3.6-1.3 1.8-4.5 1.2-5.2z" fill-rule="evenodd" clip-rule="evenodd" fill="#f90"/></symbol><symbol id="aws-d" viewBox="0 0 42.1 25.2"><path d="M11.9 9.2c0 .5.1.9.2 1.2.1.3.3.6.4 1 .1.1.1.2.1.3s-.1.3-.3.4l-.9.6c-.1.1-.3.1-.4.1-.1 0-.3-.1-.4-.2-.2-.2-.4-.4-.5-.7-.1-.2-.3-.5-.4-.8A5.16 5.16 0 015.6 13c-1.2 0-2.1-.3-2.8-1s-1-1.6-1-2.7c0-1.2.4-2.2 1.3-2.9s2-1.1 3.4-1.1c.5 0 1 0 1.5.1.5.2 1 .3 1.5.5v-1c0-1.1-.2-1.8-.7-2.2-.4-.5-1.1-.8-2.2-.8-.5 0-1 .1-1.5.2s-1 .3-1.5.5c-.2.1-.4.2-.5.2h-.2c-.2 0-.3-.1-.3-.4v-.7c0-.2 0-.4.1-.5 0-.1.2-.2.4-.3C3.6.6 4.2.4 4.9.3 5.5.1 6.2 0 7 0c1.7 0 2.9.4 3.7 1.1.8.8 1.2 1.9 1.2 3.4v4.7zm-5.7 2.1c.5 0 .9-.1 1.4-.3s1-.5 1.3-.9c.2-.3.4-.6.5-.9.1-.3.2-.7.2-1.2v-.6c-.4-.1-.9-.2-1.3-.2-.5-.1-.9-.1-1.3-.1-1 0-1.7.2-2.1.6-.5.3-.7.9-.7 1.6s.2 1.1.5 1.5c.3.3.8.5 1.5.5zm11.2 1.5c-.3 0-.4 0-.5-.1s-.2-.3-.3-.5L13.3 1.3c-.1-.3-.1-.5-.1-.6 0-.2.1-.4.3-.4h1.4c.3 0 .4 0 .5.1s.2.3.3.5l2.4 9.3L20.3.9c.1-.3.2-.5.3-.5.1-.1.3-.1.6-.1h1.1c.3 0 .4 0 .6.1 0 .2.1.4.1.7l2.2 9.4 2.4-9.4c.1-.3.2-.5.3-.5.1-.1.3-.1.5-.1h1.3c.2 0 .4.1.4.4v.2c0 .1 0 .2-.1.4l-3.4 10.8c-.1.3-.2.5-.3.5-.1.1-.3.1-.5.1h-1.2c-.3 0-.4 0-.6-.1-.1-.1-.2-.3-.3-.6l-2.2-9-2.2 9c-.1.3-.2.5-.3.6-.1.1-.3.1-.6.1l-1-.1zm18 .4a8.33 8.33 0 01-3.8-.9c-.2-.1-.4-.3-.4-.4-.1-.1-.1-.3-.1-.4v-.7c0-.3.1-.4.3-.4h.3c.1 0 .2.1.4.1.5.2 1 .4 1.5.5.6.1 1.1.2 1.7.2.9 0 1.6-.2 2-.5.5-.3.7-.8.7-1.3 0-.4-.1-.7-.4-1-.2-.2-.6-.4-1.3-.6l-2-.6c-1-.3-1.8-.8-2.2-1.4-.5-.6-.7-1.3-.7-2 0-.6.1-1.1.4-1.6.3-.4.6-.8 1-1.1.4-.3.9-.6 1.5-.7.4-.3 1-.4 1.6-.4.3 0 .6 0 .9.1.3 0 .6.1.9.2.3.1.5.1.8.2s.4.2.6.3c.2.1.3.2.4.4.1.1.1.3.1.5v.7c0 .3-.1.4-.3.4-.1 0-.3-.1-.5-.2-.8-.4-1.7-.5-2.7-.5-.8 0-1.4.1-1.9.4-.4.3-.7.7-.7 1.2 0 .4.1.7.4 1 .3.3.8.5 1.5.8l2 .6c1 .3 1.7.8 2.2 1.3.4.6.6 1.2.6 2 0 .6-.1 1.1-.4 1.6a4 4 0 01-1 1.2c-.4.4-1 .6-1.6.8-.4.1-1 .2-1.8.2z" fill="#ffffff"/><path d="M38.1 20c-4.6 3.4-11.3 5.2-17.1 5.2A31 31 0 01.2 17.3c-.4-.4 0-.9.5-.6 5.9 3.4 13.3 5.5 20.9 5.5 5.1 0 10.7-1.1 15.9-3.3.7-.3 1.3.5.6 1.1z" fill-rule="evenodd" clip-rule="evenodd" fill="#f90"/><path d="M40 17.8c-.6-.8-3.9-.4-5.4-.2-.4.1-.5-.3-.1-.6 2.6-1.8 7-1.3 7.5-.7.5.6-.1 5-2.6 7-.4.3-.7.2-.6-.3.6-1.3 1.8-4.5 1.2-5.2z" fill-rule="evenodd" clip-rule="evenodd" fill="#f90"/></symbol><symbol id="gcp" viewBox="0 0 171.1 137.7"><path d="M108.6 37.9h5.2L128.7 23l.7-6.3A67 67 0 0020.6 49.3c1.7-.7 3.5-.8 5.2-.3l29.7-4.9s1.5-2.5 2.3-2.4a37.2 37.2 0 0150.8-3.9z" fill="#ea4335"/><path d="M149.9 49.4a66.8 66.8 0 00-20.2-32.6l-20.9 20.9a37.2 37.2 0 0113.6 29.4v3.7a18.6 18.6 0 110 37.2H85.3l-3.7 3.8V134l3.7 3.7h37.2a48.3 48.3 0 0027.4-88.3z" fill="#4285f4"/><path d="M48 137.5h37.2v-29.7H48c-2.7 0-5.3-.6-7.7-1.7l-5.2 1.6-15 14.9-1.3 5.2a49 49 0 0029.2 9.7z" fill="#34a853"/><path d="M48 41a48.3 48.3 0 00-29.1 86.6l21.5-21.5c-9.3-4.2-13.5-15.2-9.3-24.6a18.6 18.6 0 0133.9 0L86.5 60A48 48 0 0048 41z" fill="#fbbc05"/></symbol><symbol id="azure" viewBox="0 0 228.7 215.5"><defs/><linearGradient id="az-a" x1="-24.82" x2="129.06" y1="147.92" y2="82.6" gradientUnits="userSpaceOnUse"><stop offset=".2" stop-color="#0868ba"/><stop offset=".47" stop-color="#0867b8"/><stop offset=".63" stop-color="#0962b0"/><stop offset=".75" stop-color="#0a59a2"/><stop offset=".85" stop-color="#0c4e8f"/><stop offset=".92" stop-color="#0e437d"/></linearGradient><path fill="url(#az-a)" d="M11.4 215.5c-7.8 0-13.3-7.7-10.8-15L66.3 7.6C67.5 4 70.3 0 76.1 0H94l21.1 84.7-42 124.1c-1.3 4-5 6.6-9.2 6.6H11.4z"/><linearGradient id="az-b" x1="74.94" x2="176.47" y1="188.41" y2="155.42" gradientUnits="userSpaceOnUse"><stop offset=".5" stop-color="#007ad8"/><stop offset=".61" stop-color="#0265b3"/></linearGradient><path fill="url(#az-b)" d="M141.3 215.5c-3.4 0-8-1.8-11.3-4.7-2.6-2.3-48.2-44.9-67.7-63.1a4.7 4.7 0 013.2-8.1h71.8l48.5 44.9-21.8 22.8-7.5 6.7-15.2 1.5z"/><linearGradient id="az-c" x1="152.39" x2="152.39" y1="215.46" y2="0" gradientUnits="userSpaceOnUse"><stop offset="0" stop-color="#2894df"/><stop offset="1" stop-color="#3ccbf6"/></linearGradient><path fill="url(#az-c)" d="M76.1 0c5.4.7 9.1 1.9 11.9 10.2s62.3 185 64.3 190.8-.9 13.5-11 14.5h77.6c6.7 0 11.4-6.5 9.2-12.9l-66-195.8a10 10 0 00-9.4-6.8H76.1z"/></symbol><symbol id="oracle" viewBox="0 0 200 188"><rect x="26" y="20" width="148" height="74" rx="37" fill="none" stroke="#F80000" stroke-width="25"/>
  
  <text x="100" y="158" text-anchor="middle" font-family="Arial, Helvetica, sans-serif" font-size="44" font-weight="700" letter-spacing="1.5" fill="#F80000">ORACLE</text></symbol></defs>

<rect x="4" y="4" width="712" height="104" rx="10" class="box accent"/>
<use href="#cpln" x="24" y="17" width="23" height="26"/>
<text x="56" y="37" class="ttl">Control Plane</text>
<text x="24" y="61" class="sub">Orchestrates many hardened, isolated Kubernetes clusters and gives every workload the same platform</text>
<rect x="24" y="71" width="45" height="22" rx="5" class="chipbox"/><text x="46.5" y="86" class="chp" text-anchor="middle">GVCs</text>
<rect x="79" y="71" width="77" height="22" rx="5" class="chipbox"/><text x="117.5" y="86" class="chp" text-anchor="middle">Workloads</text>
<rect x="166" y="71" width="70" height="22" rx="5" class="chipbox"/><text x="201.0" y="86" class="chp" text-anchor="middle">Identity</text>
<rect x="246" y="71" width="64" height="22" rx="5" class="chipbox"/><text x="278.0" y="86" class="chp" text-anchor="middle">Secrets</text>
<rect x="320" y="71" width="64" height="22" rx="5" class="chipbox"/><text x="352.0" y="86" class="chp" text-anchor="middle">Routing</text>
<rect x="394" y="71" width="102" height="22" rx="5" class="chipbox"/><text x="445.0" y="86" class="chp" text-anchor="middle">Observability</text>
<rect x="506" y="71" width="52" height="22" rx="5" class="chipbox"/><text x="532.0" y="86" class="chp" text-anchor="middle">Audit</text>

<path class="line" d="M117 108 V148"/>
<path class="line" d="M360 108 V148"/>
<path class="line" d="M603 108 V148"/>

<rect x="4" y="148" width="226" height="122" rx="9" class="box"/>
<use href="#cpln" x="23" y="164" width="19.5" height="22"/>
<text x="53" y="181" class="ttl">Control Plane regions</text>
<use href="#aws-l" class="on-light" x="22" y="203" width="31.7" height="19"/>
<use href="#aws-d" class="on-dark"  x="22" y="203" width="31.7" height="19"/>
<use href="#gcp"    x="66" y="202" width="26.1" height="21"/>
<use href="#azure"  x="104" y="202" width="22.3" height="21"/>
<use href="#oracle" x="138" y="202" width="22.3" height="21"/>
<rect x="22" y="236" width="159" height="20" rx="5" class="chipbox"/><text x="101.5" y="250" class="chp" text-anchor="middle">Control Plane operates</text>

<rect x="247" y="148" width="226" height="122" rx="9" class="box"/>
<use href="#k8s" x="265" y="164" width="23" height="22"/>
<text x="296" y="181" class="ttl">Managed Kubernetes</text>
<text x="265" y="208" class="sub">Provisioned on your cloud accounts</text>
<text x="265" y="225" class="sub">or your own Linux servers</text>
<rect x="265" y="236" width="159" height="20" rx="5" class="chipbox"/><text x="344.5" y="250" class="chp" text-anchor="middle">Control Plane operates</text>

<rect x="490" y="148" width="226" height="122" rx="9" class="box"/>
<use href="#k8s" x="508" y="164" width="23" height="22"/>
<text x="539" y="181" class="ttl">CPLN BYOK</text>
<text x="508" y="208" class="sub">A cluster you already run, joined</text>
<text x="508" y="225" class="sub">as a location of your own</text>
<rect x="508" y="236" width="90" height="20" rx="5" class="chipbox"/><text x="553.0" y="250" class="chp" text-anchor="middle">You operate</text>

<text x="360" y="292" class="sub" text-anchor="middle">Each of these is a location a GVC can span</text>
</svg>