<svg enable-background="new 0 0 298 403" viewBox="-2.24 .01 302.24 402.74" xmlns="http://www.w3.org/2000/svg"><path d="m122.3 334.9c-.3-.4-.8-.8-1.3-1-.5-.3-1.1-.4-1.9-.4-.7 0-1.4.1-1.9.4-.5.2-1 .6-1.3 1-.4.4-.6.9-.8 1.5-.2.5-.3 1.1-.4 1.6h8.8c0-.6-.1-1.1-.3-1.6-.3-.6-.5-1.1-.9-1.5zm-30-1.2c-.7 0-1.4.1-2 .3-.7.2-1.2.4-1.6.7v12.1c.3.1.7.1 1.2.2h1.6c1.8 0 3.2-.6 4.1-1.9s1.4-2.9 1.4-4.9c0-4.3-1.5-6.5-4.7-6.5zm101.1 1.2c-.3-.4-.8-.8-1.3-1-.5-.3-1.1-.4-1.9-.4-.7 0-1.4.1-1.9.4-.5.2-1 .6-1.3 1-.4.4-.6.9-.8 1.5-.2.5-.3 1.1-.4 1.6h8.8c0-.6-.1-1.1-.3-1.6-.3-.6-.6-1.1-.9-1.5zm44.8 0c-.3-.4-.8-.8-1.3-1-.5-.3-1.1-.4-1.9-.4-.7 0-1.4.1-1.9.4-.5.2-1 .6-1.3 1-.4.4-.6.9-.8 1.5-.2.5-.3 1.1-.4 1.6h8.8c0-.6-.1-1.1-.3-1.6-.2-.6-.5-1.1-.9-1.5z" fill="#fff"/><path d="m13 83.1v304.6h270.8v-304.6zm89.7 217.6-45.5-56.6c-.3-.3-.5-.7-.7-1-1.8-2.8-2.5-6.3-1.7-9.6l16.2-70.5c.9-3.7 3.4-6.8 6.8-8.5l65.7-31.4c1.5-.7 3.1-1.1 4.8-1.2 2.1-.1 4.2.3 6.1 1.2l65.8 31.4c3.4 1.6 6 4.8 6.8 8.5l16.2 70.6c.9 3.7 0 7.6-2.4 10.6l-45.5 56.6c-2.4 3-6 4.7-9.8 4.7h-73c-3.8-.1-7.5-1.8-9.8-4.8zm-57.6 51.3c-.5-.8-1-1.6-1.6-2.5-.6-1-1.2-1.9-1.9-2.8-.7-1-1.4-1.9-2.2-2.7-.7-.9-1.5-1.6-2.2-2.2v10.2h-6.6v-33.5l6.6-1.1v19.6c.7-.7 1.3-1.5 2-2.2.7-.8 1.4-1.5 2-2.3.7-.8 1.3-1.5 1.8-2.2.6-.7 1.1-1.3 1.5-1.8h7.9c-1.6 1.8-3.1 3.5-4.6 5.2-1.5 1.6-3.1 3.3-4.9 5.1.9.8 1.8 1.8 2.8 2.9s1.9 2.2 2.8 3.4 1.7 2.4 2.4 3.6 1.4 2.3 1.9 3.3zm30.7-.8c-1.1.3-2.6.6-4.4.9s-3.7.4-5.6.4c-2 0-3.7-.3-5-.8s-2.3-1.3-3.1-2.2c-.8-1-1.3-2.1-1.6-3.5-.3-1.3-.5-2.8-.5-4.4v-13h6.6v12.2c0 2.1.3 3.7.8 4.6s1.6 1.4 3.2 1.4h1.5c.5-.1 1-.1 1.4-.2v-18.1h6.6v22.7zm27.2-5.8c-.5 1.5-1.3 2.8-2.4 3.9-1 1.1-2.3 1.9-3.8 2.5s-3.2.8-5.2.8c-.8 0-1.6 0-2.5-.1s-1.7-.1-2.6-.3c-.8-.1-1.6-.3-2.4-.4-.8-.2-1.5-.4-2-.5v-32.7l6.6-1.1v11.7c.7-.3 1.5-.6 2.3-.8s1.7-.3 2.6-.3c1.7 0 3.1.3 4.4.9s2.3 1.4 3.2 2.4c.9 1.1 1.5 2.4 2 3.9.4 1.5.7 3.1.7 5-.1 1.9-.4 3.6-.9 5.1zm26.7-4.1c0 .4-.1.8-.1 1.2h-15.1c.1 1.4.8 2.4 1.9 3.3 1.1.8 2.6 1.2 4.5 1.2 1.2 0 2.4-.1 3.6-.3s2.2-.5 2.9-.8l.9 5.4c-.4.2-.8.4-1.4.5-.6.2-1.3.3-2 .4s-1.5.3-2.3.4-1.7.1-2.5.1c-2.1 0-3.9-.3-5.5-.9-1.5-.6-2.8-1.5-3.9-2.5-1-1.1-1.8-2.4-2.3-3.9s-.7-3.1-.7-4.8c0-2.1.3-3.9.9-5.4.7-1.6 1.5-2.9 2.5-3.9s2.2-1.8 3.6-2.4c1.4-.5 2.8-.8 4.2-.8 3.3 0 6 1 7.9 3.1 1.9 2 2.9 5 2.9 9 .1.2.1.6 0 1.1zm19.3-6.8c-.6-.1-1.3-.3-2.1-.4-.8-.2-1.7-.3-2.6-.3-.4 0-.9 0-1.5.1s-1 .1-1.3.2v17.9h-6.6v-22.2c1.2-.4 2.6-.8 4.2-1.2s3.4-.6 5.4-.6c.4 0 .8 0 1.3.1.5 0 1 .1 1.5.2s1 .1 1.5.3c.5.1.9.2 1.3.4zm24.9 17.5h-6.6v-12.4c0-2.1-.3-3.7-.8-4.5-.6-.9-1.6-1.3-3.2-1.3-.5 0-1 0-1.5.1-.5 0-1 .1-1.4.1v18h-6.6v-22.6c1.1-.3 2.6-.6 4.4-.9s3.7-.4 5.6-.4c2 0 3.6.3 4.9.8s2.4 1.2 3.2 2.2 1.3 2.1 1.6 3.4.5 2.8.5 4.4v13.1zm26.9-10.7c0 .4-.1.8-.1 1.2h-15.1c.1 1.4.8 2.4 1.9 3.3 1.1.8 2.6 1.2 4.5 1.2 1.2 0 2.4-.1 3.6-.3s2.2-.5 2.9-.8l.9 5.4c-.4.2-.8.4-1.4.5-.6.2-1.3.3-2 .4s-1.5.3-2.3.4-1.7.1-2.5.1c-2.1 0-3.9-.3-5.5-.9-1.5-.6-2.8-1.5-3.9-2.5-1-1.1-1.8-2.4-2.3-3.9s-.7-3.1-.7-4.8c0-2.1.3-3.9.9-5.4.7-1.6 1.5-2.9 2.5-3.9s2.2-1.8 3.6-2.4c1.4-.5 2.8-.8 4.2-.8 3.3 0 6 1 7.9 3.1 1.9 2 2.9 5 2.9 9zm17.8 10.9c-1 .2-2.2.4-3.6.4-1.8 0-3.3-.2-4.5-.7s-2.1-1.2-2.9-2c-.7-.9-1.2-2-1.5-3.2s-.4-2.6-.4-4.1v-19.7l6.6-1.1v6.9h8v5.5h-8v8.2c0 1.4.2 2.5.7 3.3s1.5 1.2 3 1.2c.7 0 1.4-.1 2.2-.2s1.5-.3 2.1-.6l.9 5.2c-.7.4-1.6.7-2.6.9zm27.1-10.9c0 .4-.1.8-.1 1.2h-15.1c.1 1.4.8 2.4 1.9 3.3 1.1.8 2.6 1.2 4.5 1.2 1.2 0 2.4-.1 3.6-.3s2.2-.5 2.9-.8l.9 5.4c-.4.2-.8.4-1.4.5-.6.2-1.3.3-2 .4s-1.5.3-2.3.4-1.7.1-2.5.1c-2.1 0-3.9-.3-5.5-.9-1.5-.6-2.8-1.5-3.9-2.5-1-1.1-1.8-2.4-2.3-3.9s-.7-3.1-.7-4.8c0-2.1.3-3.9.9-5.4.7-1.6 1.5-2.9 2.5-3.9s2.2-1.8 3.6-2.4c1.4-.5 2.8-.8 4.2-.8 3.3 0 6 1 7.9 3.1 1.9 2 2.9 5 2.9 9zm19.2 9.6c-1.7 1.2-4.2 1.8-7.3 1.8-2.1 0-3.8-.2-5.2-.5-1.4-.4-2.3-.7-2.9-.9l1.1-5.4c1.1.4 2.3.8 3.5 1.1 1.2.2 2.4.4 3.5.4 1.2 0 2.1-.1 2.6-.4s.8-.7.8-1.4c0-.5-.3-1-1-1.4s-1.6-.9-3-1.4c-1-.4-2-.8-2.9-1.2-.8-.4-1.5-.9-2.1-1.5s-1.1-1.3-1.4-2.1-.5-1.8-.5-2.9c0-2.2.8-3.9 2.4-5.2s3.9-1.9 6.7-1.9c1.4 0 2.8.1 4.1.4 1.3.2 2.3.5 3.1.8l-1.2 5.2c-.8-.3-1.6-.5-2.5-.7s-1.9-.3-3-.3c-2.1 0-3.1.6-3.1 1.7 0 .3 0 .5.1.7s.3.4.5.6c.3.2.6.4 1.1.6s1.1.4 1.8.7c1.5.5 2.7 1.1 3.6 1.6 1 .5 1.7 1.1 2.2 1.7.6.6 1 1.3 1.2 2s.4 1.6.4 2.6c0 2.3-.9 4.1-2.6 5.3z" fill="#fff"/><path d="m227.2 57.7c.6 0 1.1 0 1.6-.1.5 0 .9-.1 1.2-.2v-11.8c-.4-.3-.9-.5-1.6-.7s-1.3-.3-2-.3c-3.1 0-4.6 2.1-4.6 6.3 0 2 .5 3.6 1.4 4.9.8 1.2 2.2 1.9 4 1.9zm-129.9-10.5c-.2-.5-.4-1-.7-1.4s-.8-.7-1.3-1-1.1-.4-1.9-.4c-.7 0-1.4.1-1.9.4-.5.2-1 .6-1.3 1-.4.4-.6.9-.8 1.4s-.3 1.1-.4 1.6h8.6c-.1-.5-.2-1.1-.3-1.6zm107.3 0c-.2-.5-.4-1-.7-1.4s-.8-.7-1.3-1-1.1-.4-1.9-.4c-.7 0-1.4.1-1.9.4-.5.2-1 .6-1.3 1-.4.4-.6.9-.8 1.4s-.3 1.1-.4 1.6h8.6c-.1-.5-.2-1.1-.3-1.6z" fill="#326ce5"/><path d="m64.2 59.8c1 1.1 2.2 1.9 3.7 2.6 1.5.6 3.3.9 5.4.9 1.4 0 2.6-.1 3.8-.4 1.1-.2 2.1-.5 2.8-.8l-.9-5.3c-.8.3-1.6.6-2.5.7s-1.8.2-2.5.2c-2.2 0-3.8-.6-4.7-1.7s-1.3-2.7-1.3-4.8c0-2 .5-3.5 1.4-4.7s2.4-1.8 4.3-1.8c.9 0 1.7.1 2.5.3.7.2 1.4.4 2 .6l1.4-5.2c-1-.4-2-.7-3-.9s-2.1-.3-3.4-.3c-1.9 0-3.5.3-5 1-1.5.6-2.7 1.5-3.7 2.6s-1.8 2.4-2.3 3.9-.8 3-.8 4.7.2 3.3.7 4.8c.4 1.2 1.1 2.5 2.1 3.6zm21 0c1 1.1 2.3 1.9 3.8 2.5s3.3.9 5.4.9c.8 0 1.6 0 2.5-.1.8-.1 1.6-.2 2.3-.3s1.4-.3 2-.5 1.1-.4 1.4-.5l-.9-5.3c-.7.3-1.7.6-2.8.8-1.2.2-2.3.3-3.5.3-1.9 0-3.4-.4-4.5-1.2s-1.7-1.9-1.9-3.2h14.8c0-.4.1-.8.1-1.2v-1.2c0-3.9-.9-6.8-2.8-8.8s-4.5-3-7.8-3c-1.4 0-2.8.3-4.1.8s-2.5 1.3-3.5 2.3-1.8 2.3-2.5 3.8c-.6 1.5-.9 3.3-.9 5.4 0 1.7.2 3.3.7 4.7.4 1.5 1.2 2.8 2.2 3.8zm4.1-12.6c.2-.5.5-1 .8-1.4.4-.4.8-.7 1.3-1 .5-.2 1.2-.4 1.9-.4.8 0 1.4.1 1.9.4s.9.6 1.3 1c.3.4.6.9.7 1.4.2.5.3 1.1.3 1.6h-8.6c.1-.5.3-1.1.4-1.6zm26.2-2.2c.3-.1.7-.2 1.3-.2.6-.1 1.1-.1 1.5-.1.9 0 1.8.1 2.5.2.8.2 1.5.3 2.1.5l1.1-5.4c-.4-.1-.8-.3-1.3-.4l-1.5-.3c-.5-.1-1-.1-1.5-.2-.5 0-.9-.1-1.3-.1-2 0-3.7.2-5.3.5-1.6.4-3 .8-4.1 1.2v21.8h6.5zm13.6 15.4c.7.9 1.6 1.5 2.8 2s2.6.7 4.4.7c1.4 0 2.6-.1 3.6-.4 1-.2 1.8-.5 2.6-.8l-.9-5.1c-.6.2-1.3.4-2 .5s-1.5.2-2.2.2c-1.5 0-2.4-.4-2.9-1.2s-.7-1.9-.7-3.3v-8h7.8v-5.4h-7.8v-6.8l-6.5 1.1v19.4c0 1.5.1 2.8.4 4.1.2 1.1.7 2.2 1.4 3zm17.8-20.8h6.5v23.1h-6.5zm3.2-2.8c1.1 0 2-.3 2.7-1 .8-.7 1.2-1.6 1.2-2.8s-.4-2.1-1.2-2.8-1.7-1-2.7-1c-1.1 0-2 .3-2.7 1-.8.7-1.2 1.6-1.2 2.8s.4 2.1 1.2 2.8 1.7 1 2.7 1zm31.1 0c1.1 0 2-.3 2.7-1 .8-.7 1.2-1.6 1.2-2.8s-.4-2.1-1.2-2.8-1.7-1-2.7-1-2 .3-2.7 1c-.8.7-1.2 1.6-1.2 2.8s.4 2.1 1.2 2.8c.7.7 1.6 1 2.7 1zm-3.3 2.8h6.5v23.1h-6.5zm-11.8 5.4h8.1v-5.4h-8.1v-1.1c0-.6.1-1.2.2-1.7s.4-1 .7-1.4.7-.7 1.3-.9c.5-.2 1.2-.3 2-.3.6 0 1.2 0 1.7.1.6.1 1.1.2 1.6.4l1.1-5.1c-.6-.2-1.2-.5-2-.7s-1.8-.3-3-.3c-3.3 0-5.8.9-7.5 2.6-1.7 1.8-2.5 4.1-2.5 7.1v24.3h6.5v-17.6zm26.4 14.8c1 1.1 2.3 1.9 3.8 2.5s3.3.9 5.4.9c.8 0 1.6 0 2.5-.1.8-.1 1.6-.2 2.3-.3s1.4-.3 2-.5 1.1-.4 1.4-.5l-.9-5.3c-.7.3-1.7.6-2.8.8-1.2.2-2.3.3-3.5.3-1.9 0-3.4-.4-4.5-1.2s-1.7-1.9-1.9-3.2h14.7c0-.4.1-.8.1-1.2v-1.2c0-3.9-1-6.8-2.8-8.8-1.9-2-4.5-3-7.8-3-1.4 0-2.8.3-4.1.8s-2.5 1.3-3.5 2.3-1.8 2.3-2.5 3.8c-.6 1.5-.9 3.3-.9 5.4 0 1.7.2 3.3.7 4.7.5 1.5 1.3 2.8 2.3 3.8zm4.1-12.6c.2-.5.5-1 .8-1.4.4-.4.8-.7 1.3-1 .5-.2 1.2-.4 1.9-.4.8 0 1.4.1 1.9.4s.9.6 1.3 1c.3.4.6.9.7 1.4.2.5.3 1.1.3 1.6h-8.6c.1-.5.2-1.1.4-1.6zm21.7 12.8c1 1 2.3 1.8 3.8 2.4s3.2.8 5.1.8c.8 0 1.6 0 2.5-.1s1.7-.2 2.5-.3 1.6-.3 2.4-.4c.8-.2 1.4-.3 2-.5v-33.3l-6.5 1.1v10.4c-.7-.3-1.5-.6-2.2-.7-.7-.2-1.5-.3-2.4-.3-1.6 0-3.1.3-4.4.8-1.3.6-2.3 1.4-3.2 2.4-.9 1.1-1.5 2.3-2 3.8s-.7 3.2-.7 5.1c0 1.8.3 3.5.8 5s1.2 2.8 2.3 3.8zm8.1-15.4c.7 0 1.3.1 2 .3s1.2.4 1.6.7v11.9c-.3.1-.7.1-1.2.2-.5 0-1 .1-1.6.1-1.8 0-3.1-.6-4-1.8s-1.4-2.8-1.4-4.9c0-4.4 1.5-6.5 4.6-6.5z" fill="#fff"/><path d="m172.4 250.4s.1 0 .1-.1c0 .1-.1.1-.1.1zm8.5-8.1c2.8-3.5 4.9-7.4 6.4-11.6l-20.4-3.5c-.3-.1-.5-.1-.8-.1-.5 0-.9.1-1.3.3-1.7.8-2.4 2.8-1.7 4.5l7.9 19.2c3.8-2.2 7.2-5.2 9.9-8.8zm-53.9 8.9 7.8-19-.1-.1c.3-.7.4-1.4.2-2.1-.4-1.6-1.7-2.7-3.3-2.7-.2 0-.4 0-.6.1l-20.3 3.4c1.5 4.2 3.7 8.2 6.6 11.7 2.7 3.4 6 6.3 9.7 8.7zm-6.6-63.4 16.9 12c.6.4 1.3.7 2 .7 1.8 0 3.4-1.4 3.4-3.3h.1l1.2-20.6c-1.4.2-2.8.4-4.2.7-7.3 1.6-14.1 5.2-19.4 10.5zm46.3-7.6c-4-1.9-8.3-3.2-12.7-3.8l1.2 20.6c0 .7.3 1.4.7 2 1.2 1.4 3.2 1.7 4.7.6h.1l16.8-11.9c-3.2-3-6.9-5.5-10.8-7.5zm.5 31c-.4 1.8.7 3.6 2.4 4.1v.1l19.9 5.7c.4-4.4.1-8.8-.9-13.1-1-4.4-2.7-8.5-5-12.3l-15.3 13.7c-.5.4-.9 1.1-1.1 1.8zm-9.1 45.5c1.4-.3 2.7-.7 4-1.1l-10-18h-.1c-.3-.6-.9-1.1-1.5-1.5-.5-.2-1-.3-1.5-.3h-.1c-1.2 0-2.3.7-2.9 1.8l-10 18c7.1 2.3 14.7 2.7 22.1 1.1zm21.8-13s0-.1 0 0c0-.1 0 0 0 0zm-65.7-48.1c-2.3 3.8-4 7.8-4.9 12.1-1 4.4-1.3 8.9-.8 13.4l19.8-5.7v-.1c.7-.2 1.3-.6 1.8-1.2 1.1-1.4 1-3.5-.4-4.7v-.1zm31.6 14.8-3.9 4.9 1.4 6.1 5.7 2.8 5.6-2.8 1.4-6.1-3.9-4.9z" fill="#326ce5"/><path d="m185.5 305.4c3.8 0 7.4-1.7 9.8-4.7l45.5-56.6c2.4-3 3.3-6.9 2.4-10.6l-16.2-70.5c-.9-3.7-3.4-6.8-6.8-8.5l-65.8-31.4c-1.9-.9-4-1.3-6.1-1.2-1.7.1-3.3.5-4.8 1.2l-65.7 31.4c-3.4 1.6-6 4.8-6.8 8.5l-16.2 70.6c-.8 3.3-.1 6.7 1.7 9.6.2.3.5.7.7 1l45.5 56.6c2.4 3 6 4.7 9.8 4.7zm-63.2-42.8.7-1.7c-10.8-6.4-18.8-16.5-22.7-28.3l-1.7.3c-.1 0-.1-.1-.2-.1-.5-.3-1.3-.8-2.1-.7-2.1.3-4.2 1.1-6.7 2h-.1c-.4.2-.8.3-1.2.5-.8.3-1.5.6-2.4.9-.2.1-.5.1-.7.2-.1 0-.2 0-.3.1-2.3.5-4.6-.8-5.1-2.9s1-4.3 3.4-4.8c.1 0 .2 0 .3-.1.3-.1.5-.1.7-.2.9-.2 1.7-.2 2.5-.2.4 0 .8 0 1.3-.1h.1c2.7-.3 5-.5 7-1.1.6-.2 1.1-.9 1.5-1.5l.2-.2 1.6-.5c-1.8-12.4 1.1-25 8-35.5l-1.2-1.1v-.2c-.1-.6-.2-1.5-.8-2.1-1.5-1.5-3.5-2.7-5.8-4.1-.4-.2-.8-.4-1.1-.6-.7-.4-1.4-.7-2.1-1.3-.2-.1-.4-.3-.6-.5-.1-.1-.2-.1-.2-.2-.9-.7-1.5-1.7-1.7-2.8s.1-2.2.7-3c.7-.9 1.8-1.4 3-1.4h.1c1 0 2 .4 2.8 1 .1.1.2.1.2.2.2.2.5.4.6.5.7.6 1.2 1.2 1.7 1.8.3.3.5.6.8.9l.1.1c1.9 1.9 3.5 3.5 5.2 4.7.8.5 1.4.4 2 .3h.3c.2.2 1 .7 1.4 1 6.9-7.4 15.8-12.4 25.7-14.7 2.3-.5 4.7-.9 7.1-1.1l.1-1.6c.5-.5 1.1-1.2 1.3-2 .2-2.1-.1-4.4-.4-7.1v-.1c-.1-.4-.1-.8-.2-1.2-.2-.8-.3-1.6-.3-2.5v-1.1c0-2.4 1.8-4.4 4-4.4s4 2 4 4.4v1.1c0 .9-.2 1.7-.3 2.5-.1.4-.2.8-.2 1.2v.2c-.3 2.6-.6 4.9-.4 6.9.1.9.6 1.3 1.1 1.7l.2.2c0 .3.1 1.2.1 1.7 6.2.6 12.2 2.2 17.8 5 5.6 2.7 10.6 6.3 14.8 10.8l1.5-1.1h.2c.6 0 1.5.1 2.2-.3 1.7-1.2 3.3-2.8 5.2-4.7l.1-.1c.3-.3.6-.6.8-.9.5-.6 1.1-1.2 1.8-1.8.2-.1.4-.3.6-.5.1-.1.2-.1.2-.2 1.9-1.5 4.6-1.4 5.9.4 1.4 1.7.9 4.3-1 5.8-.1.1-.2.1-.3.2-.2.2-.4.3-.6.5-.7.5-1.4.9-2.1 1.3-.4.2-.7.4-1.1.6-2.3 1.4-4.3 2.7-5.8 4.1-.6.7-.7 1.3-.7 1.9v.3c-.1.1-.3.3-.6.5s-.6.5-.8.7c3.5 5.2 6 10.9 7.4 17s1.7 12.2.8 18.4l1.6.5s.1.1.1.2c.3.5.8 1.3 1.6 1.5 2 .6 4.3.9 7 1.1h.1c.4 0 .9.1 1.3.1.8 0 1.6.1 2.5.2.2 0 .5.1.7.2.2 0 .3.1.4.1 2.3.6 3.8 2.7 3.4 4.8-.5 2.1-2.8 3.4-5.1 2.9-.1 0-.2-.1-.4-.1s-.5-.1-.6-.1c-.9-.2-1.6-.5-2.3-.9-.4-.2-.8-.3-1.2-.5h-.1c-2.5-.9-4.7-1.7-6.7-2h-.2c-.8 0-1.2.3-1.7.7-.1.1-.2.1-.2.2-.3-.1-1.1-.2-1.7-.3-1.9 5.9-4.8 11.4-8.7 16.3s-8.6 9-14 12.2c.1.1.1.3.2.5.2.4.3.9.4 1 0 .1-.1.2-.1.3-.2.6-.5 1.2-.2 2 .8 2 2 4 3.5 6.2.2.4.5.7.7 1 .5.7.9 1.3 1.4 2.1.1.2.2.5.4.7.1.1.1.2.2.3 1 2.2.3 4.7-1.7 5.6-1 .5-2.1.5-3.1.1s-1.9-1.2-2.4-2.3c0-.1-.1-.2-.1-.3-.1-.3-.3-.5-.3-.7-.4-.8-.6-1.6-.8-2.4-.1-.4-.2-.8-.4-1.2v-.1c-.9-2.5-1.6-4.7-2.7-6.5-.5-.8-1.1-.9-1.7-1.1-.1 0-.2-.1-.3-.1-.1-.1-.2-.4-.4-.7s-.3-.6-.4-.8c-2.2.8-4.5 1.5-6.7 2-9.9 2.2-20.1 1.5-29.6-2.1l-.9 1.6c-.6.2-1.3.3-1.7.8-1 1.2-1.6 2.9-2.2 4.7-.3.8-.5 1.6-.8 2.3-.1.4-.2.8-.4 1.2-.2.8-.4 1.5-.8 2.4-.1.2-.2.4-.3.7-.1.1-.1.2-.2.3-.8 1.6-2.3 2.6-3.9 2.6-.5 0-1.1-.1-1.6-.4-1.9-.9-2.7-3.5-1.7-5.6.1-.1.1-.2.2-.4s.2-.5.3-.7c.4-.8.9-1.4 1.4-2.1.2-.3.5-.7.7-1 1.6-2.4 2.8-4.5 3.6-6.4-.5-.4-.8-1.3-1-1.9z" fill="#326ce5"/><path d="m119.1 271.2c-.2.4-.5.7-.7 1-.5.7-.9 1.3-1.4 2.1-.1.2-.2.4-.3.7-.1.1-.1.3-.2.4-1 2.2-.3 4.7 1.7 5.6.5.2 1 .4 1.6.4 1.6 0 3.1-1 3.9-2.6 0-.1.1-.2.2-.3.1-.2.2-.5.3-.7.4-.8.6-1.6.8-2.4.1-.4.2-.8.4-1.2.3-.8.6-1.6.8-2.3.6-1.8 1.2-3.5 2.2-4.7.4-.5 1-.6 1.7-.8l.9-1.6c9.5 3.6 19.7 4.4 29.6 2.1 2.3-.5 4.5-1.2 6.7-2 .1.2.3.5.4.8.2.3.3.6.4.7.1 0 .2.1.3.1.6.2 1.2.4 1.7 1.1 1.1 1.8 1.8 4 2.7 6.5v.1c.1.4.2.8.4 1.2.2.8.4 1.5.8 2.4.1.2.2.5.3.7 0 .1.1.2.1.3.5 1.1 1.4 1.9 2.4 2.3s2.1.4 3.1-.1c1.9-.9 2.7-3.5 1.7-5.6 0-.1-.1-.2-.2-.3-.1-.3-.2-.5-.4-.7-.4-.8-.9-1.4-1.4-2.1-.2-.3-.5-.7-.7-1-1.5-2.3-2.7-4.3-3.5-6.2-.3-.9 0-1.5.2-2 0-.1.1-.2.1-.3-.1-.1-.3-.6-.4-1-.1-.2-.1-.4-.2-.5 5.4-3.2 10.1-7.3 14-12.2s6.8-10.4 8.7-16.3c.5.1 1.4.2 1.7.3.1-.1.2-.1.2-.2.5-.3.9-.7 1.7-.7h.2c2.1.3 4.2 1.1 6.7 2h.1c.4.2.8.3 1.2.5.8.3 1.5.6 2.3.9.2 0 .4.1.6.1.1 0 .3.1.4.1 2.3.5 4.6-.8 5.1-2.9s-1-4.3-3.4-4.8c-.1 0-.3-.1-.4-.1-.3-.1-.5-.1-.7-.2-.9-.2-1.7-.2-2.5-.2-.4 0-.8 0-1.3-.1h-.1c-2.7-.3-5-.5-7-1.1-.7-.3-1.3-1.1-1.6-1.5 0-.1-.1-.1-.1-.2l-1.6-.5c.8-6.1.6-12.3-.8-18.4s-3.9-11.8-7.4-17c.2-.2.5-.5.8-.7s.5-.4.6-.5v-.3c0-.6.1-1.3.7-1.9 1.5-1.4 3.5-2.7 5.8-4.1.4-.2.8-.4 1.1-.6.7-.4 1.4-.7 2.1-1.3.2-.1.4-.3.6-.5.1-.1.2-.2.3-.2 1.9-1.5 2.3-4.1 1-5.8-1.4-1.7-4-1.9-5.9-.4-.1.1-.2.1-.2.2-.2.2-.5.4-.6.5-.7.6-1.2 1.2-1.8 1.8-.3.3-.5.6-.8.9l-.1.1c-1.9 1.9-3.4 3.5-5.2 4.7-.7.4-1.6.3-2.2.3h-.2l-1.5 1.1c-4.3-4.5-9.3-8.1-14.8-10.8-5.6-2.7-11.6-4.4-17.8-5 0-.5-.1-1.4-.1-1.7l-.2-.2c-.5-.4-.9-.8-1.1-1.7-.2-2.1.1-4.3.4-6.9v-.2c.1-.4.1-.8.2-1.2.2-.8.3-1.6.3-2.5v-1.1c0-2.4-1.8-4.4-4-4.4s-4 2-4 4.4v1.1c0 .9.2 1.7.3 2.5.1.4.2.8.2 1.2v.1c.3 2.7.6 5 .4 7.1-.2.8-.8 1.5-1.3 2l-.1 1.6c-2.4.2-4.8.6-7.1 1.1-9.9 2.2-18.8 7.3-25.7 14.7-.4-.3-1.2-.8-1.4-1h-.3c-.6.1-1.2.2-2-.3-1.7-1.2-3.4-2.8-5.2-4.7l-.1-.1c-.3-.3-.6-.6-.8-.9-.5-.6-1-1.2-1.7-1.8-.2-.2-.4-.3-.6-.5-.1-.1-.2-.1-.2-.2-.8-.6-1.8-1-2.8-1h-.1c-1.2 0-2.3.5-3 1.4-.7.8-.9 1.9-.7 3s.8 2.1 1.7 2.8c.1.1.2.1.2.2.2.2.4.3.6.5.7.5 1.4.9 2.1 1.3.4.2.7.4 1.1.6 2.3 1.4 4.3 2.7 5.8 4.1.5.6.7 1.5.8 2.1v.2l1.2 1.1c-7 10.5-9.8 23.1-8 35.5l-1.6.5-.2.2c-.4.6-1 1.3-1.5 1.5-2 .6-4.3.9-7 1.1h-.1c-.4 0-.9.1-1.3.1-.8 0-1.6.1-2.5.2-.2 0-.5.1-.7.2-.1 0-.2.1-.3.1-2.3.6-3.8 2.7-3.4 4.8.5 2.1 2.8 3.4 5.1 2.9.1 0 .2 0 .3-.1.3-.1.5-.1.7-.2.9-.2 1.6-.5 2.4-.9.4-.2.8-.3 1.2-.5h.1c2.5-.9 4.7-1.7 6.7-2 .8-.1 1.6.4 2.1.7.1 0 .1.1.2.1l1.7-.3c3.8 11.9 11.9 21.9 22.7 28.3l-.7 1.7c.2.6.5 1.5.4 2.2-.2 1.6-1.5 3.6-3 6.1zm10.5-61.8c1.4 1.2 1.6 3.3.4 4.7-.5.6-1.1 1-1.8 1.2v.1l-19.8 5.7c-.5-4.5-.2-9 .8-13.4 1-4.3 2.6-8.4 4.9-12.1zm1.4 18h.7c1.6 0 2.9 1.1 3.3 2.7.2.7.1 1.4-.2 2.1l.1.1-7.8 19c-3.7-2.4-7-5.3-9.7-8.7-2.8-3.5-5-7.4-6.6-11.7zm29.6-27.7c-1.5 1.1-3.6.8-4.7-.6-.5-.6-.7-1.3-.7-2l-1.2-20.6c4.4.5 8.7 1.8 12.7 3.8 4 1.9 7.6 4.5 10.8 7.6zm-17.8-2.6c-.2 1.9-1.7 3.4-3.5 3.4-.7 0-1.4-.2-2-.7l-16.9-12c5.4-5.3 12.1-8.9 19.5-10.6 1.3-.3 2.7-.5 4.2-.7zm3.1 40.4c.6-1.1 1.7-1.8 2.9-1.8h.1c.5 0 1 .1 1.5.3.7.3 1.2.8 1.5 1.5h.1l10 18c-1.3.4-2.6.8-4 1.1-7.4 1.7-15 1.3-22.2-1.1zm8.7-16.1-5.7 2.7-5.7-2.7-1.4-6.1 3.9-4.9h6.3l3.9 4.9zm8.5 10.7c-.7-1.7 0-3.7 1.7-4.5.4-.2.9-.3 1.3-.3.2 0 .5 0 .8.1l20.4 3.5c-1.5 4.2-3.7 8.1-6.4 11.6-2.8 3.5-6.1 6.5-9.9 8.9zm16.8 11.5s0 .1 0 0zm-11.6-34.3 15.3-13.7c2.3 3.8 4 8 5 12.3s1.3 8.8.9 13.1l-19.9-5.7v-.1c-1.8-.5-2.9-2.3-2.4-4.1.2-.6.6-1.3 1.1-1.8zm4.2 41s-.1 0-.1.1c0 0 .1 0 .1-.1z" fill="#fff"/><path d="m48.4 345.2c-.9-1.2-1.8-2.3-2.8-3.4s-1.9-2.1-2.8-2.9c1.8-1.8 3.4-3.4 4.9-5.1s3.1-3.4 4.6-5.2h-7.9c-.4.5-.9 1.1-1.5 1.8s-1.2 1.4-1.8 2.2c-.7.7-1.3 1.5-2 2.3s-1.4 1.5-2 2.2v-19.6l-6.6 1.1v33.4h6.6v-10.2c.7.6 1.5 1.3 2.2 2.2.8.9 1.5 1.8 2.2 2.7s1.3 1.9 1.9 2.8 1.2 1.8 1.6 2.5h7.6c-.5-1-1.1-2.1-1.9-3.3-.6-1.1-1.5-2.3-2.3-3.5zm20.7 1.5c-.4.1-.9.1-1.4.2h-1.5c-1.5 0-2.6-.5-3.2-1.4s-.8-2.5-.8-4.6v-12.2h-6.6v13c0 1.6.2 3.1.5 4.4s.9 2.5 1.6 3.5c.8 1 1.8 1.7 3.1 2.2s3 .8 5 .8 3.8-.1 5.6-.4 3.2-.6 4.4-.9v-22.6h-6.6v18zm32.1-15.2c-.9-1.1-1.9-1.9-3.2-2.4-1.3-.6-2.7-.9-4.4-.9-.9 0-1.8.1-2.6.3s-1.6.4-2.3.8v-11.7l-6.6 1.1v32.7c.6.2 1.3.4 2 .5.8.1 1.6.3 2.4.4.9.1 1.7.2 2.6.3s1.7.1 2.5.1c1.9 0 3.7-.3 5.2-.8 1.5-.6 2.8-1.4 3.8-2.5s1.8-2.4 2.4-3.9.8-3.2.8-5.1c0-1.8-.2-3.5-.7-5-.4-1.6-1.1-2.9-1.9-3.9zm-5.5 13.6c-.9 1.2-2.3 1.9-4.1 1.9h-1.6c-.5-.1-.9-.1-1.2-.2v-12.1c.4-.3 1-.5 1.6-.7.7-.2 1.4-.3 2-.3 3.1 0 4.7 2.1 4.7 6.4-.1 2.1-.5 3.8-1.4 5zm23.3-17.1c-1.4 0-2.8.3-4.2.8-1.3.5-2.5 1.3-3.6 2.4-1 1-1.9 2.3-2.5 3.9-.6 1.5-.9 3.4-.9 5.4 0 1.7.2 3.3.7 4.8s1.3 2.8 2.3 3.9 2.3 1.9 3.9 2.5 3.4.9 5.5.9c.8 0 1.7 0 2.5-.1s1.6-.2 2.3-.4c.7-.1 1.4-.3 2-.4.6-.2 1.1-.4 1.4-.5l-.9-5.4c-.7.3-1.7.6-2.9.8s-2.3.3-3.6.3c-1.9 0-3.4-.4-4.5-1.2s-1.8-1.9-1.9-3.3h15.1c0-.4.1-.8.1-1.2v-1.3c0-3.9-1-6.9-2.9-9-1.9-1.9-4.6-2.9-7.9-2.9zm-4.4 10c.1-.6.2-1.1.4-1.6.2-.6.5-1.1.8-1.5.4-.4.8-.7 1.3-1s1.2-.4 1.9-.4c.8 0 1.4.1 1.9.4s1 .6 1.3 1c.4.4.6.9.8 1.4s.3 1.1.3 1.6h-8.7zm32.7-9.6c-.5-.1-1-.1-1.5-.2s-.9-.1-1.3-.1c-2 0-3.8.2-5.4.6s-3 .7-4.2 1.2v22.1h6.6v-17.9c.3-.1.7-.2 1.3-.2.6-.1 1.1-.1 1.5-.1.9 0 1.8.1 2.6.3.8.1 1.5.3 2.1.4l1.1-5.5c-.4-.1-.8-.3-1.3-.4s-1-.1-1.5-.2zm24.5 2.7c-.8-1-1.8-1.7-3.2-2.2-1.3-.5-3-.8-4.9-.8-2 0-3.8.1-5.6.4s-3.2.6-4.4.9v22.6h6.6v-18c.4-.1.9-.1 1.4-.1.5-.1 1-.1 1.5-.1 1.5 0 2.6.4 3.2 1.3s.8 2.4.8 4.5v12.4h6.6v-13.2c0-1.6-.2-3.1-.5-4.4-.2-1.3-.8-2.4-1.5-3.3zm18.3-3.1c-1.4 0-2.8.3-4.2.8-1.3.5-2.5 1.3-3.6 2.4-1 1-1.9 2.3-2.5 3.9-.6 1.5-.9 3.4-.9 5.4 0 1.7.2 3.3.7 4.8s1.3 2.8 2.3 3.9 2.3 1.9 3.9 2.5 3.4.9 5.5.9c.8 0 1.7 0 2.5-.1s1.6-.2 2.3-.4c.7-.1 1.4-.3 2-.4.6-.2 1.1-.4 1.4-.5l-.9-5.4c-.7.3-1.7.6-2.9.8s-2.3.3-3.6.3c-1.9 0-3.4-.4-4.5-1.2s-1.8-1.9-1.9-3.3h15.1c0-.4.1-.8.1-1.2v-1.3c0-3.9-1-6.9-2.9-9-2-1.9-4.6-2.9-7.9-2.9zm-4.4 10c.1-.6.2-1.1.4-1.6.2-.6.5-1.1.8-1.5.4-.4.8-.7 1.3-1s1.2-.4 1.9-.4c.8 0 1.4.1 1.9.4s1 .6 1.3 1c.4.4.6.9.8 1.4s.3 1.1.3 1.6h-8.7zm32.6 8.8c-.7.1-1.5.2-2.2.2-1.5 0-2.5-.4-3-1.2s-.7-1.9-.7-3.3v-8.2h8v-5.5h-8v-6.9l-6.6 1.1v19.7c0 1.5.1 2.9.4 4.1s.8 2.3 1.5 3.2 1.7 1.5 2.9 2 2.7.7 4.5.7c1.4 0 2.6-.1 3.6-.4 1-.2 1.9-.5 2.7-.8l-.9-5.2c-.8.2-1.5.3-2.2.5zm16.7-18.8c-1.4 0-2.8.3-4.2.8-1.3.5-2.5 1.3-3.6 2.4-1 1-1.9 2.3-2.5 3.9-.6 1.5-.9 3.4-.9 5.4 0 1.7.2 3.3.7 4.8s1.3 2.8 2.3 3.9 2.3 1.9 3.9 2.5 3.4.9 5.5.9c.8 0 1.7 0 2.5-.1s1.6-.2 2.3-.4c.7-.1 1.4-.3 2-.4.6-.2 1.1-.4 1.4-.5l-.9-5.4c-.7.3-1.7.6-2.9.8s-2.3.3-3.6.3c-1.9 0-3.4-.4-4.5-1.2s-1.8-1.9-1.9-3.3h15.1c0-.4.1-.8.1-1.2v-1.3c0-3.9-1-6.9-2.9-9-2-1.9-4.6-2.9-7.9-2.9zm-4.5 10c.1-.6.2-1.1.4-1.6.2-.6.5-1.1.8-1.5.4-.4.8-.7 1.3-1s1.2-.4 1.9-.4c.8 0 1.4.1 1.9.4s1 .6 1.3 1c.4.4.6.9.8 1.4s.3 1.1.3 1.6h-8.7zm35.5 3c-.5-.6-1.3-1.2-2.2-1.7-1-.5-2.2-1.1-3.6-1.6-.7-.3-1.3-.5-1.8-.7-.4-.2-.8-.4-1.1-.6s-.4-.4-.5-.6-.1-.4-.1-.7c0-1.2 1-1.7 3.1-1.7 1.1 0 2.1.1 3 .3s1.8.4 2.5.7l1.2-5.2c-.8-.3-1.8-.6-3.1-.8-1.3-.3-2.7-.4-4.1-.4-2.9 0-5.1.6-6.7 1.9s-2.4 3-2.4 5.2c0 1.1.2 2.1.5 2.9s.8 1.5 1.4 2.1 1.3 1.1 2.1 1.5c.9.4 1.8.8 2.9 1.2 1.3.5 2.3 1 3 1.4s1 .8 1 1.4c0 .7-.3 1.1-.8 1.4s-1.4.4-2.6.4-2.3-.1-3.5-.4-2.3-.6-3.5-1.1l-1.1 5.4c.5.2 1.5.5 2.9.9s3.1.5 5.2.5c3.2 0 5.6-.6 7.3-1.8 1.8-1.2 2.6-2.9 2.6-5.3 0-1-.1-1.8-.4-2.6-.3-.7-.6-1.4-1.2-2z" fill="#326de5"/><path d="m13 83.1h270.8v304.6h-270.8z" fill="none"/><path d="m292.3 79.3v-25.8c0-25.1-20.5-45.6-45.6-45.6h-195.5c-25 0-45.6 20.5-45.6 45.6v341.7h286.7zm-77-32.8c.5-1.5 1.1-2.8 2-3.8.9-1.1 2-1.9 3.2-2.4 1.3-.6 2.7-.8 4.4-.8.9 0 1.7.1 2.4.3s1.4.4 2.2.7v-10.5l6.5-1.1v33.3c-.6.2-1.3.3-2 .5-.8.2-1.6.3-2.4.4s-1.7.2-2.5.3c-.9.1-1.7.1-2.5.1-1.9 0-3.6-.3-5.1-.8-1.5-.6-2.7-1.4-3.8-2.4-1-1-1.8-2.3-2.3-3.8s-.8-3.1-.8-5c0-1.8.3-3.5.7-5zm-25-.3c.6-1.5 1.5-2.8 2.5-3.8s2.2-1.8 3.5-2.3 2.7-.8 4.1-.8c3.3 0 5.9 1 7.8 3s2.8 4.9 2.8 8.8v1.2c0 .5-.1.9-.1 1.2h-14.8c.1 1.3.8 2.4 1.9 3.2s2.6 1.2 4.5 1.2c1.2 0 2.4-.1 3.5-.3 1.2-.2 2.1-.5 2.8-.8l.9 5.3c-.4.2-.8.4-1.4.5-.6.2-1.2.3-2 .5-.7.1-1.5.2-2.3.3s-1.6.1-2.5.1c-2.1 0-3.9-.3-5.4-.9s-2.8-1.5-3.8-2.5c-1-1.1-1.8-2.3-2.2-3.8-.5-1.5-.7-3-.7-4.7 0-2.1.3-3.9.9-5.4zm-11.3-15.8c.8-.7 1.7-1 2.7-1 1.1 0 2 .3 2.7 1 .8.7 1.2 1.6 1.2 2.8s-.4 2.1-1.2 2.8-1.7 1-2.7 1c-1.1 0-2-.3-2.7-1-.8-.7-1.2-1.6-1.2-2.8s.4-2.1 1.2-2.8zm6 9.5v23.1h-6.5v-23.1zm-24.9-1.3c0-3 .8-5.3 2.5-7.1s4.2-2.6 7.5-2.6c1.2 0 2.2.1 3 .3s1.5.4 2 .7l-1.1 5.1c-.5-.2-1-.4-1.6-.4-.6-.1-1.1-.1-1.7-.1-.8 0-1.5.1-2 .3s-1 .5-1.3.9-.5.8-.7 1.4c-.1.5-.2 1.1-.2 1.7v1.1h8.1v5.4h-8.1v17.6h-6.5v-24.3zm-12.2-8.2c.8-.7 1.7-1 2.7-1 1.1 0 2 .3 2.7 1 .8.7 1.2 1.6 1.2 2.8s-.4 2.1-1.2 2.8-1.7 1-2.7 1c-1.1 0-2-.3-2.7-1-.8-.7-1.2-1.6-1.2-2.8.1-1.2.4-2.1 1.2-2.8zm6 9.5v23.1h-6.5v-23.1zm-26.2-5.8 6.5-1.1v6.8h7.8v5.4h-7.8v8.1c0 1.4.2 2.5.7 3.3s1.5 1.2 2.9 1.2c.7 0 1.4-.1 2.2-.2.7-.1 1.4-.3 2-.5l.9 5.1c-.8.3-1.7.6-2.6.8-1 .2-2.1.4-3.6.4-1.8 0-3.3-.2-4.4-.7-1.2-.5-2.1-1.2-2.8-2-.7-.9-1.2-1.9-1.5-3.1s-.4-2.6-.4-4.1v-19.4zm-18.2 7c1.2-.4 2.5-.8 4.1-1.2s3.4-.5 5.3-.5c.4 0 .8 0 1.3.1.5 0 1 .1 1.5.2l1.5.3c.5.1.9.2 1.3.4l-1.1 5.4c-.6-.1-1.3-.3-2.1-.5s-1.6-.2-2.5-.2c-.4 0-.9 0-1.5.1s-1 .2-1.3.2v17.6h-6.5zm-25.8 5.1c.6-1.5 1.5-2.8 2.5-3.8s2.2-1.8 3.5-2.3 2.7-.8 4.1-.8c3.3 0 5.9 1 7.8 3s2.8 4.9 2.8 8.8v1.2c0 .5-.1.9-.1 1.2h-14.8c.1 1.3.8 2.4 1.9 3.2s2.6 1.2 4.5 1.2c1.2 0 2.4-.1 3.5-.3 1.2-.2 2.1-.5 2.8-.8l.9 5.3c-.4.2-.8.4-1.4.5-.6.2-1.2.3-2 .5-.7.1-1.5.2-2.3.3s-1.6.1-2.5.1c-2.1 0-3.9-.3-5.4-.9s-2.8-1.5-3.8-2.5c-1-1.1-1.8-2.3-2.2-3.8-.5-1.5-.7-3-.7-4.7 0-2.1.3-3.9.9-5.4zm-21 .5c.5-1.5 1.3-2.8 2.3-3.9s2.3-2 3.7-2.6c1.5-.6 3.1-1 5-1 1.2 0 2.4.1 3.4.3s2 .5 3 .9l-1.4 5.2c-.6-.2-1.3-.4-2-.6s-1.5-.3-2.5-.3c-1.9 0-3.4.6-4.3 1.8-1 1.2-1.4 2.8-1.4 4.7 0 2.1.4 3.7 1.3 4.8s2.4 1.7 4.7 1.7c.8 0 1.6-.1 2.5-.2s1.7-.4 2.5-.7l.9 5.3c-.8.3-1.7.6-2.8.8s-2.4.4-3.8.4c-2.1 0-3.9-.3-5.4-.9-1.4-.4-2.7-1.3-3.6-2.4a9.5 9.5 0 0 1 -2.1-3.8c-.5-1.5-.7-3.1-.7-4.8-.1-1.7.2-3.2.7-4.7zm221.1 341h-270.8v-304.6h270.8z" fill="#326ce5"/><path d="m204.4 47.4c-.2-.5-.4-1-.7-1.4s-.8-.7-1.3-1-1.1-.4-1.9-.4c-.7 0-1.4.1-1.9.4-.5.2-1 .6-1.3 1-.4.4-.6.9-.8 1.4s-.3 1.1-.4 1.6h8.6c0-.5-.1-1-.3-1.6zm22.3 10.5c.6 0 1.1 0 1.6-.1.5 0 .9-.1 1.2-.2v-11.8c-.4-.3-.9-.5-1.6-.7s-1.3-.3-2-.3c-3.1 0-4.6 2.1-4.6 6.3 0 2 .5 3.6 1.4 4.9s2.2 1.9 4 1.9zm-128.9-10.5c-.2-.5-.4-1-.7-1.4s-.8-.7-1.3-1-1.1-.4-1.9-.4c-.7 0-1.4.1-1.9.4-.5.2-1 .6-1.3 1-.4.4-.6.9-.8 1.4s-.3 1.1-.4 1.6h8.6c0-.5-.1-1-.3-1.6z" fill="#326ce5"/><path d="m64.8 60c1 1.1 2.2 1.9 3.7 2.6 1.5.6 3.3.9 5.4.9 1.4 0 2.6-.1 3.8-.4 1.1-.2 2.1-.5 2.8-.8l-.9-5.3c-.8.3-1.6.6-2.5.7s-1.8.2-2.5.2c-2.2 0-3.8-.6-4.7-1.7s-1.3-2.7-1.3-4.8c0-2 .5-3.5 1.4-4.7s2.4-1.8 4.3-1.8c.9 0 1.7.1 2.5.3.7.2 1.4.4 2 .6l1.4-5.2c-1-.4-2-.7-3-.9s-2.1-.3-3.4-.3c-1.9 0-3.5.3-5 1-1.5.6-2.7 1.5-3.7 2.6s-1.8 2.4-2.3 3.9-.8 3-.8 4.7.2 3.3.7 4.8c.4 1.3 1.1 2.5 2.1 3.6zm20.9.1c1 1.1 2.3 1.9 3.8 2.5s3.3.9 5.4.9c.8 0 1.6 0 2.5-.1.8-.1 1.6-.2 2.3-.3s1.4-.3 2-.5 1.1-.4 1.4-.5l-.9-5.3c-.7.3-1.7.6-2.8.8-1.2.2-2.3.3-3.5.3-1.9 0-3.4-.4-4.5-1.2s-1.7-1.9-1.9-3.2h14.8c0-.4.1-.8.1-1.2v-1.2c0-3.9-1-6.8-2.8-8.8-1.9-2-4.5-3-7.8-3-1.4 0-2.8.3-4.1.8s-2.5 1.3-3.5 2.3-1.8 2.3-2.5 3.8c-.6 1.5-.9 3.3-.9 5.4 0 1.7.2 3.3.7 4.7.5 1.5 1.2 2.7 2.2 3.8zm4.2-12.7c.2-.5.5-1 .8-1.4.4-.4.8-.7 1.3-1 .5-.2 1.2-.4 1.9-.4.8 0 1.4.1 1.9.4s.9.6 1.3 1c.3.4.6.9.7 1.4.2.5.3 1.1.3 1.6h-8.6c0-.5.2-1 .4-1.6zm26.1-2.1c.3-.1.7-.2 1.3-.2.6-.1 1.1-.1 1.5-.1.9 0 1.8.1 2.5.2.8.2 1.5.3 2.1.5l1.1-5.4c-.4-.1-.8-.3-1.3-.4l-1.5-.3c-.5-.1-1-.1-1.5-.2-.5 0-.9-.1-1.3-.1-2 0-3.7.2-5.3.5-1.6.4-3 .8-4.1 1.2v21.8h6.5zm13.6 15.4c.7.9 1.6 1.5 2.8 2s2.6.7 4.4.7c1.4 0 2.6-.1 3.6-.4 1-.2 1.8-.5 2.6-.8l-.9-5.1c-.6.2-1.3.4-2 .5s-1.5.2-2.2.2c-1.5 0-2.4-.4-2.9-1.2s-.7-1.9-.7-3.3v-8.1h7.8v-5.4h-7.8v-6.8l-6.5 1.1v19.4c0 1.5.1 2.8.4 4.1.2 1.2.7 2.2 1.4 3.1zm17.8-20.8h6.5v23.1h-6.5zm3.3-2.8c1.1 0 2-.3 2.7-1 .8-.7 1.2-1.6 1.2-2.8s-.4-2.1-1.2-2.8-1.7-1-2.7-1c-1.1 0-2 .3-2.7 1-.8.7-1.2 1.6-1.2 2.8s.4 2.1 1.2 2.8c.7.6 1.6 1 2.7 1zm15.9 8.2h8.1v-5.4h-8.1v-1.1c0-.6.1-1.2.2-1.7s.4-1 .7-1.4.7-.7 1.3-.9c.5-.2 1.2-.3 2-.3.6 0 1.2 0 1.7.1.6.1 1.1.2 1.6.4l1.1-5.1c-.6-.2-1.2-.5-2-.7s-1.8-.3-3-.3c-3.3 0-5.8.9-7.5 2.6-1.7 1.8-2.5 4.1-2.5 7.1v24.3h6.5v-17.6zm15.1-8.2c1.1 0 2-.3 2.7-1 .8-.7 1.2-1.6 1.2-2.8s-.4-2.1-1.2-2.8-1.7-1-2.7-1c-1.1 0-2 .3-2.7 1-.8.7-1.2 1.6-1.2 2.8s.4 2.1 1.2 2.8c.7.6 1.6 1 2.7 1zm-3.2 2.8h6.5v23.1h-6.5zm13.8 20.2c1 1.1 2.3 1.9 3.8 2.5s3.3.9 5.4.9c.8 0 1.6 0 2.5-.1.8-.1 1.6-.2 2.3-.3s1.4-.3 2-.5 1.1-.4 1.4-.5l-.9-5.3c-.7.3-1.7.6-2.8.8-1.2.2-2.3.3-3.5.3-1.9 0-3.4-.4-4.5-1.2s-1.7-1.9-1.9-3.2h14.8c0-.4.1-.8.1-1.2v-1.2c0-3.9-1-6.8-2.8-8.8-1.9-2-4.5-3-7.8-3-1.4 0-2.8.3-4.1.8s-2.5 1.3-3.5 2.3-1.8 2.3-2.5 3.8c-.6 1.5-.9 3.3-.9 5.4 0 1.7.2 3.3.7 4.7.5 1.5 1.2 2.7 2.2 3.8zm4.2-12.7c.2-.5.5-1 .8-1.4.4-.4.8-.7 1.3-1 .5-.2 1.2-.4 1.9-.4.8 0 1.4.1 1.9.4s.9.6 1.3 1c.3.4.6.9.7 1.4.2.5.3 1.1.3 1.6h-8.6c.1-.5.2-1 .4-1.6zm21.3 12.9c1 1 2.3 1.8 3.8 2.4s3.2.8 5.1.8c.8 0 1.6 0 2.5-.1s1.7-.2 2.5-.3 1.6-.3 2.4-.4c.8-.2 1.4-.3 2-.5v-33.3l-6.5 1.1v10.4c-.7-.3-1.5-.6-2.2-.7-.7-.2-1.5-.3-2.4-.3-1.6 0-3.1.3-4.4.8-1.3.6-2.3 1.4-3.2 2.4-.9 1.1-1.5 2.3-2 3.8s-.7 3.2-.7 5.1c0 1.8.3 3.5.8 5s1.3 2.7 2.3 3.8zm8.1-15.4c.7 0 1.3.1 2 .3s1.2.4 1.6.7v11.9c-.3.1-.7.1-1.2.2-.5 0-1 .1-1.6.1-1.8 0-3.1-.6-4-1.8s-1.4-2.8-1.4-4.9c0-4.4 1.5-6.5 4.6-6.5z" fill="#fff"/></svg>